HIERARCHY
ROOT Hips
{
	OFFSET -0.001795 -0.223333 0.028219
	CHANNELS 6 Xposition Yposition Zposition Zrotation Yrotation Xrotation 
	JOINT LeftUpLeg
	{
		OFFSET 0.069520 -0.091406 -0.006815
		CHANNELS 3 Zrotation Yrotation Xrotation
		JOINT LeftLeg
		{
			OFFSET 0.034277 -0.375199 -0.004496
			CHANNELS 3 Zrotation Yrotation Xrotation
			JOINT LeftFoot
			{
				OFFSET -0.013596 -0.397961 -0.043693
				CHANNELS 3 Zrotation Yrotation Xrotation
				JOINT LeftToe
				{
					OFFSET 0.026358 -0.055791 0.119288
					CHANNELS 3 Zrotation Yrotation Xrotation
					End Site
					{
						OFFSET 0.000000 0.000000 0.000000
					}
				}
			}
		}
	}
	JOINT RightUpLeg
	{
		OFFSET -0.067670 -0.090522 -0.004320
		CHANNELS 3 Zrotation Yrotation Xrotation
		JOINT RightLeg
		{
			OFFSET -0.038290 -0.382569 -0.008850
			CHANNELS 3 Zrotation Yrotation Xrotation
			JOINT RightFoot
			{
				OFFSET 0.015774 -0.398415 -0.042312
				CHANNELS 3 Zrotation Yrotation Xrotation
				JOINT RightToe
				{
					OFFSET -0.025372 -0.048144 0.123348
					CHANNELS 3 Zrotation Yrotation Xrotation
					End Site
					{
						OFFSET 0.000000 0.000000 0.000000
					}
				}
			}
		}
	}
	JOINT Spine
	{
		OFFSET -0.002533 0.108963 -0.026696
		CHANNELS 3 Zrotation Yrotation Xrotation
		JOINT Spine1
		{
			OFFSET 0.005487 0.135180 0.001092
			CHANNELS 3 Zrotation Yrotation Xrotation
			JOINT Spine2
			{
				OFFSET 0.001457 0.052922 0.025425
				CHANNELS 3 Zrotation Yrotation Xrotation
				JOINT Neck
				{
					OFFSET -0.002778 0.213870 -0.042857
					CHANNELS 3 Zrotation Yrotation Xrotation
					JOINT Head
					{
						OFFSET 0.005152 0.064970 0.051349
						CHANNELS 3 Zrotation Yrotation Xrotation
						End Site
						{
							OFFSET 0.000000 0.000000 0.000000
						}
					}
				}
				JOINT LeftShoulder
				{
					OFFSET 0.078845 0.121749 -0.034090
					CHANNELS 3 Zrotation Yrotation Xrotation
					JOINT LeftArm
					{
						OFFSET 0.090977 0.030469 -0.008868
						CHANNELS 3 Zrotation Yrotation Xrotation
						JOINT LeftForeArm
						{
							OFFSET 0.259612 -0.012772 -0.027456
							CHANNELS 3 Zrotation Yrotation Xrotation
							JOINT LeftHand
							{
								OFFSET 0.249234 0.008986 -0.001171
								CHANNELS 3 Zrotation Yrotation Xrotation
								End Site
								{
									OFFSET 0.000000 0.000000 0.000000
								}
							}
						}
					}
				}
				JOINT RightShoulder
				{
					OFFSET -0.081759 0.118833 -0.038615
					CHANNELS 3 Zrotation Yrotation Xrotation
					JOINT RightArm
					{
						OFFSET -0.096012 0.032551 -0.009143
						CHANNELS 3 Zrotation Yrotation Xrotation
						JOINT RightForeArm
						{
							OFFSET -0.253742 -0.013329 -0.021401
							CHANNELS 3 Zrotation Yrotation Xrotation
							JOINT RightHand
							{
								OFFSET -0.255298 0.007772 -0.005559
								CHANNELS 3 Zrotation Yrotation Xrotation
								End Site
								{
									OFFSET 0.000000 0.000000 0.000000
								}
							}
						}
					}
				}
			}
		}
	}
}
MOTION
Frames: 13
Frame Time: 0.050000
0.009573 0.964135 -0.038636 -1.292365 -14.777737 -0.044476 4.288111 0.386949 4.246772 -3.764548 0.554186 -5.909873 3.748727 9.673433 16.721138 0.000000 0.000000 0.000000 -3.497439 0.257541 -1.097038 3.919646 -0.277802 -0.864593 1.795378 -4.430652 13.619394 0.000000 0.000000 0.000000 6.284094 -0.306917 3.079200 -6.306580 1.924431 -22.090593 -2.401423 0.743702 30.982336 9.113358 -3.637078 -35.531656 0.000000 0.000000 0.000000 -11.648325 -17.087821 9.048956 -24.127141 -27.721293 -0.059643 52.449634 -63.654559 -27.956554 0.000000 0.000000 0.000000 26.758583 -2.151140 -6.582021 47.397754 -1.963743 -6.720897 31.773636 50.632026 15.892684 0.000000 0.000000 0.000000 
0.008959 0.964370 -0.038015 -1.360714 -13.624015 0.138757 4.552189 0.332037 3.783373 -4.098898 0.575401 -5.857179 3.075646 8.771314 16.579637 0.000000 0.000000 0.000000 -3.365758 0.233143 -0.912498 3.919892 -0.290128 -1.047400 0.909411 -5.887514 13.715875 0.000000 0.000000 0.000000 6.366328 -0.285943 2.762876 -6.827754 2.094058 -21.829082 -2.000205 1.410466 30.882329 9.807810 -3.758553 -35.492177 0.000000 0.000000 0.000000 -13.574660 -15.457127 8.445356 -26.504963 -23.379868 -0.729788 40.607710 -69.929612 -23.086389 0.000000 0.000000 0.000000 27.305447 -2.596804 -6.397961 47.398535 -1.591986 -6.736658 30.257181 48.598438 14.802168 0.000000 0.000000 0.000000 
0.008349 0.964257 -0.037123 -1.083736 -12.810024 0.339416 4.578994 0.288576 3.358396 -4.364785 0.591183 -5.509676 2.597120 8.069463 16.080258 0.000000 0.000000 0.000000 -3.657788 0.259764 -1.182026 4.053342 -0.305628 -1.015102 0.459869 -6.565635 13.707250 0.000000 0.000000 0.000000 6.128362 -0.264134 2.509775 -7.177400 2.204172 -21.994358 -1.656926 2.139555 31.242008 9.847409 -3.611246 -35.537436 0.000000 0.000000 0.000000 -15.458542 -13.138452 7.416668 -28.371298 -18.473310 -1.692838 21.130928 -73.944674 -10.268911 0.000000 0.000000 0.000000 27.949535 -2.489411 -5.953422 47.476388 -1.502317 -6.876658 30.110386 48.024519 14.845468 0.000000 0.000000 0.000000 
0.007803 0.963882 -0.036322 -0.981998 -11.747951 0.325547 4.842428 0.263006 3.228818 -4.661022 0.608468 -5.619185 1.713947 6.816055 15.908788 0.000000 0.000000 0.000000 -3.777705 0.239429 -0.875759 4.247735 -0.328979 -1.019585 -0.287143 -7.754908 13.774160 0.000000 0.000000 0.000000 6.025846 -0.239672 2.235973 -7.482758 2.325206 -21.382692 -1.392767 2.869442 30.999384 10.416926 -3.647237 -35.639699 0.000000 0.000000 0.000000 -17.144423 -11.598710 6.539272 -30.811061 -13.272577 -2.785596 1.333613 -74.896041 4.376767 0.000000 0.000000 0.000000 28.581691 -2.769189 -5.654574 47.553466 -0.740131 -6.755266 29.266063 46.842717 14.366163 0.000000 0.000000 0.000000 
0.007410 0.963273 -0.035710 -1.013909 -10.735209 0.308750 5.257874 0.234975 3.072265 -4.905886 0.620793 -5.203897 1.224331 6.101999 15.394033 0.000000 0.000000 0.000000 -3.809234 0.235796 -0.923986 4.334894 -0.345777 -1.019095 -0.583509 -8.176793 13.886209 0.000000 0.000000 0.000000 6.022762 -0.252282 2.351400 -7.885587 2.455359 -21.492773 -1.041340 3.527471 31.288175 10.339649 -3.387158 -35.922779 0.000000 0.000000 0.000000 -18.376406 -9.445841 5.220084 -33.371939 -9.069187 -3.891405 -13.945313 -75.450356 16.158065 0.000000 0.000000 0.000000 29.067221 -2.939259 -5.271279 47.988433 -0.141542 -6.796405 27.920247 46.301024 13.900137 0.000000 0.000000 0.000000 
0.007116 0.962529 -0.035375 -0.968091 -10.191920 -0.023043 5.546796 0.232974 3.154508 -5.077147 0.632833 -4.850871 0.663537 5.288012 15.316397 0.000000 0.000000 0.000000 -3.875553 0.203922 -0.452800 4.457081 -0.360657 -0.831649 -0.864884 -8.625027 13.989101 0.000000 0.000000 0.000000 5.977543 -0.273595 2.649902 -7.907892 2.469527 -21.612596 -0.658540 4.584138 31.459598 10.611519 -3.225357 -36.542621 0.000000 0.000000 0.000000 -19.452079 -7.970761 4.126384 -33.919968 -5.546912 -4.732598 -15.634365 -75.855545 17.204041 0.000000 0.000000 0.000000 29.781163 -3.086477 -4.862988 47.417504 0.848659 -6.560073 26.069259 46.034275 13.268147 0.000000 0.000000 0.000000 
0.006986 0.962188 -0.035328 -0.794696 -10.037281 -0.286468 5.416635 0.228742 3.037573 -4.983000 0.624589 -4.436324 0.336242 4.791092 15.302417 0.000000 0.000000 0.000000 -4.000660 0.211838 -0.545514 4.509950 -0.365846 -0.236405 -1.034265 -8.765404 13.585570 0.000000 0.000000 0.000000 5.963203 -0.305508 3.056228 -8.393588 2.593710 -22.036665 -0.129466 5.569625 31.577083 9.903713 -2.749174 -36.409118 0.000000 0.000000 0.000000 -19.532573 -6.195732 2.849470 -33.093952 -4.438121 -4.822113 -4.605783 -78.599572 8.596308 0.000000 0.000000 0.000000 30.315821 -3.220537 -4.549003 47.344050 1.646515 -6.416387 24.119753 45.597999 12.492309 0.000000 0.000000 0.000000 
0.006890 0.962207 -0.035715 -0.599868 -9.726768 -0.758140 5.457115 0.239701 3.213645 -4.988604 0.622066 -4.442667 -0.416692 3.578273 14.990122 0.000000 0.000000 0.000000 -4.055969 0.190518 -0.244382 4.433365 -0.363565 0.113975 -1.314137 -9.223236 13.612443 0.000000 0.000000 0.000000 5.806500 -0.326367 3.429042 -8.386384 2.591128 -22.310753 0.280955 6.465178 31.629376 9.620211 -2.522490 -35.981015 0.000000 0.000000 0.000000 -19.356562 -6.044662 2.463313 -29.922045 -6.321390 -3.961321 32.316312 -79.439124 -22.669670 0.000000 0.000000 0.000000 31.227042 -3.297934 -4.231549 46.416538 2.118283 -6.297031 22.374514 45.703966 11.933720 0.000000 0.000000 0.000000 
0.006895 0.962515 -0.036439 -0.362853 -9.713937 -1.047757 5.212764 0.257977 3.419690 -4.554312 0.579414 -4.472444 -0.828068 3.052515 15.478682 0.000000 0.000000 0.000000 -4.300596 0.184365 0.032131 4.383573 -0.360373 0.038303 -1.439425 -9.502227 13.806394 0.000000 0.000000 0.000000 5.896705 -0.314845 3.333978 -8.480929 2.603899 -22.732882 0.450077 6.905612 31.745658 9.317801 -2.397037 -35.362619 0.000000 0.000000 0.000000 -18.044880 -6.366688 2.525498 -26.404103 -10.099971 -2.889274 61.703506 -72.097637 -43.057579 0.000000 0.000000 0.000000 30.953456 -2.981804 -3.765635 46.426380 2.649971 -6.184441 20.651660 44.884307 11.024835 0.000000 0.000000 0.000000 
0.006957 0.962937 -0.037496 -0.285661 -9.606915 -1.692572 5.301256 0.308938 4.190114 -4.368818 0.560750 -4.717277 -1.414656 2.170664 15.521227 0.000000 0.000000 0.000000 -4.173113 0.134947 0.702509 4.046791 -0.335642 0.147980 -1.320378 -9.235351 13.669366 0.000000 0.000000 0.000000 5.839288 -0.306262 3.388553 -8.342370 2.582484 -22.542216 0.804919 7.164750 31.414433 8.639228 -2.058554 -34.880939 0.000000 0.000000 0.000000 -16.414151 -8.827077 3.684905 -21.226471 -15.969469 -1.697001 67.934026 -57.886145 -37.918307 0.000000 0.000000 0.000000 30.721189 -2.813230 -3.464414 46.244462 3.056771 -6.039370 19.221108 44.158366 10.252520 0.000000 0.000000 0.000000 
0.007301 0.963405 -0.038786 -0.207578 -9.469055 -2.228614 5.317002 0.348110 4.768516 -4.229596 0.546823 -4.822655 -1.508479 2.061262 15.552575 0.000000 0.000000 0.000000 -4.144056 0.101518 1.183570 3.945383 -0.330476 0.064367 -1.434780 -9.620291 14.318447 0.000000 0.000000 0.000000 5.819031 -0.314386 3.600308 -7.944221 2.457663 -23.232597 0.645229 5.981418 31.485914 7.865471 -1.989115 -33.859823 0.000000 0.000000 0.000000 -14.900240 -11.332532 5.114762 -15.043171 -20.744575 -1.258585 68.487684 -42.094034 -27.239592 0.000000 0.000000 0.000000 30.066975 -1.621072 -3.038404 46.317760 3.047584 -5.912889 18.561069 43.960568 9.747875 0.000000 0.000000 0.000000 
0.007979 0.964161 -0.040218 -0.084463 -9.421562 -2.647691 5.169869 0.374221 5.062874 -4.223929 0.545376 -4.397809 -1.513513 2.026836 15.404823 0.000000 0.000000 0.000000 -4.325092 0.094905 1.407238 3.768143 -0.315120 0.363619 -1.036640 -8.945081 14.369818 0.000000 0.000000 0.000000 5.440820 -0.324617 3.926844 -7.601653 2.368030 -23.378953 0.830311 4.905449 30.974278 6.954602 -1.674814 -33.885749 0.000000 0.000000 0.000000 -12.329629 -13.519097 6.108786 -9.174442 -25.493371 -1.309818 67.768032 -28.472120 -17.941088 0.000000 0.000000 0.000000 29.815157 -1.062049 -3.092709 46.345124 2.819048 -5.808946 17.377345 43.684809 9.013478 0.000000 0.000000 0.000000 
0.008942 0.964656 -0.041849 0.006155 -9.055569 -2.966669 5.387080 0.374454 5.201205 -4.785865 0.596887 -4.286334 -1.366748 2.423653 15.764688 0.000000 0.000000 0.000000 -4.459089 0.079635 1.714887 3.872001 -0.327167 0.453283 -1.109359 -9.085641 14.573798 0.000000 0.000000 0.000000 4.817657 -0.293410 3.784082 -6.826701 2.166954 -23.424480 0.499747 3.790214 30.897840 6.015308 -1.450686 -33.013064 0.000000 0.000000 0.000000 -8.765512 -15.353177 6.606099 -2.974055 -28.958263 -1.864590 66.621329 -17.563469 -10.836875 0.000000 0.000000 0.000000 29.886398 -0.455915 -3.090729 45.737391 2.397293 -5.753697 17.171338 44.003092 8.836554 0.000000 0.000000 0.000000 
